<?xml version="1.0" encoding="UTF-8" standalone="no"?><svg xmlns="http://www.w3.org/2000/svg" xmlns:xlink="http://www.w3.org/1999/xlink" contentScriptType="application/ecmascript" contentStyleType="text/css" height="249px" preserveAspectRatio="none" style="width:441px;height:249px;background:#FFFFFF;" version="1.1" viewBox="0 0 441 249" width="441px" zoomAndPan="magnify"><defs><filter height="300%" id="fy70mqc8hw8x6" width="300%" x="-1" y="-1"><feGaussianBlur result="blurOut" stdDeviation="2.0"/><feColorMatrix in="blurOut" result="blurOut2" type="matrix" values="0 0 0 0 0 0 0 0 0 0 0 0 0 0 0 0 0 0 .4 0"/><feOffset dx="4.0" dy="4.0" in="blurOut2" result="blurOut3"/><feBlend in="SourceGraphic" in2="blurOut3" mode="normal"/></filter></defs><g><path d="M15.5,10 L15.5,50.2656 A0,0 0 0 0 15.5,50.2656 L209.5,50.2656 A0,0 0 0 0 209.5,50.2656 L209.5,34.1328 L229.5,30.1328 L209.5,26.1328 L209.5,20 L199.5,10 L15.5,10 A0,0 0 0 0 15.5,10 " fill="#FBFB77" filter="url(#fy70mqc8hw8x6)" style="stroke:#A80036;stroke-width:1.0;"/><path d="M199.5,10 L199.5,20 L209.5,20 L199.5,10 " fill="#FBFB77" style="stroke:#A80036;stroke-width:1.0;"/><text fill="#000000" font-family="sans-serif" font-size="13" lengthAdjust="spacing" textLength="173" x="21.5" y="27.0669">update eines Pull Requests</text><text fill="#000000" font-family="sans-serif" font-size="13" lengthAdjust="spacing" textLength="92" x="21.5" y="42.1997">push auf main</text><ellipse cx="239.5" cy="30.1328" fill="#000000" filter="url(#fy70mqc8hw8x6)" rx="10" ry="10" style="stroke:none;stroke-width:1.0;"/><rect fill="#FEFECE" filter="url(#fy70mqc8hw8x6)" height="33.9688" rx="12.5" ry="12.5" style="stroke:#A80036;stroke-width:1.5;" width="121" x="179" y="70.2656"/><text fill="#000000" font-family="sans-serif" font-size="12" lengthAdjust="spacing" textLength="101" x="189" y="91.4043">Style 端berpr端fen</text><polygon fill="#FEFECE" filter="url(#fy70mqc8hw8x6)" points="183,124.2344,296,124.2344,308,136.2344,296,148.2344,183,148.2344,171,136.2344,183,124.2344" style="stroke:#A80036;stroke-width:1.5;"/><text fill="#000000" font-family="sans-serif" font-size="11" lengthAdjust="spacing" textLength="113" x="183" y="140.0425">Probleme gefunden</text><text fill="#000000" font-family="sans-serif" font-size="11" lengthAdjust="spacing" textLength="10" x="161" y="133.6401">ja</text><text fill="#000000" font-family="sans-serif" font-size="11" lengthAdjust="spacing" textLength="25" x="308" y="133.6401">nein</text><rect fill="#FEFECE" filter="url(#fy70mqc8hw8x6)" height="33.9688" rx="12.5" ry="12.5" style="stroke:#A80036;stroke-width:1.5;" width="284" x="11" y="158.2344"/><text fill="#000000" font-family="sans-serif" font-size="12" lengthAdjust="spacing" textLength="264" x="21" y="179.373">Posten von Kommentaren beim Pull Request</text><path d="M83,209.6367 L83,234.7695 A0,0 0 0 0 83,234.7695 L123,234.7695 A0,0 0 0 0 123,234.7695 L123,227.6367 L143,222.2031 L123,219.6367 L123,219.6367 L113,209.6367 L83,209.6367 A0,0 0 0 0 83,209.6367 " fill="#C82333" filter="url(#fy70mqc8hw8x6)" style="stroke:#A80036;stroke-width:1.0;"/><path d="M113,209.6367 L113,219.6367 L123,219.6367 L113,209.6367 " fill="#C82333" style="stroke:#A80036;stroke-width:1.0;"/><text fill="#000000" font-family="sans-serif" font-size="13" lengthAdjust="spacing" textLength="19" x="89" y="226.7036">fail</text><ellipse cx="153" cy="222.2031" fill="#FFFFFF" filter="url(#fy70mqc8hw8x6)" rx="10" ry="10" style="stroke:#000000;stroke-width:1.5;"/><line style="stroke:#000000;stroke-width:2.5;" x1="146.8128" x2="159.1872" y1="216.0159" y2="228.3903"/><line style="stroke:#000000;stroke-width:2.5;" x1="159.1872" x2="146.8128" y1="216.0159" y2="228.3903"/><path d="M357,158.2344 L357,166.8008 L337,170.8008 L357,174.8008 L357,183.3672 A0,0 0 0 0 357,183.3672 L429,183.3672 A0,0 0 0 0 429,183.3672 L429,168.2344 L419,158.2344 L357,158.2344 A0,0 0 0 0 357,158.2344 " fill="#43AA5A" filter="url(#fy70mqc8hw8x6)" style="stroke:#A80036;stroke-width:1.0;"/><path d="M419,158.2344 L419,168.2344 L429,168.2344 L419,158.2344 " fill="#43AA5A" style="stroke:#A80036;stroke-width:1.0;"/><text fill="#000000" font-family="sans-serif" font-size="13" lengthAdjust="spacing" textLength="51" x="363" y="175.3013">success</text><ellipse cx="326" cy="170.8008" fill="#FFFFFF" filter="url(#fy70mqc8hw8x6)" rx="11" ry="11" style="stroke:#000000;stroke-width:1.0;"/><ellipse cx="326" cy="170.8008" fill="#000000" rx="6" ry="6" style="stroke:#7F7F7F;stroke-width:1.0;"/><line style="stroke:#A80036;stroke-width:1.5;" x1="239.5" x2="239.5" y1="40.1328" y2="70.2656"/><polygon fill="#A80036" points="235.5,60.2656,239.5,70.2656,243.5,60.2656,239.5,64.2656" style="stroke:#A80036;stroke-width:1.0;"/><line style="stroke:#A80036;stroke-width:1.5;" x1="153" x2="153" y1="192.2031" y2="212.2031"/><polygon fill="#A80036" points="149,202.2031,153,212.2031,157,202.2031,153,206.2031" style="stroke:#A80036;stroke-width:1.0;"/><line style="stroke:#A80036;stroke-width:1.5;" x1="171" x2="153" y1="136.2344" y2="136.2344"/><line style="stroke:#A80036;stroke-width:1.5;" x1="153" x2="153" y1="136.2344" y2="158.2344"/><polygon fill="#A80036" points="149,148.2344,153,158.2344,157,148.2344,153,152.2344" style="stroke:#A80036;stroke-width:1.0;"/><line style="stroke:#A80036;stroke-width:1.5;" x1="308" x2="326" y1="136.2344" y2="136.2344"/><line style="stroke:#A80036;stroke-width:1.5;" x1="326" x2="326" y1="136.2344" y2="159.8008"/><polygon fill="#A80036" points="322,149.8008,326,159.8008,330,149.8008,326,153.8008" style="stroke:#A80036;stroke-width:1.0;"/><line style="stroke:#A80036;stroke-width:1.5;" x1="239.5" x2="239.5" y1="104.2344" y2="124.2344"/><polygon fill="#A80036" points="235.5,114.2344,239.5,124.2344,243.5,114.2344,239.5,118.2344" style="stroke:#A80036;stroke-width:1.0;"/><!--MD5=[f2192dcd198596ec6417ec3800e54344]
@startuml
start
note
    update eines Pull Requests
    push auf main
end note

:Style 端berpr端fen;

if (Probleme gefunden) then (ja)
    :Posten von Kommentaren beim Pull Request;
    end
    note left #C82333 : fail
else (nein)
    stop
    note right #43aa5a : success
endif
@enduml

PlantUML version 1.2021.15(Tue Nov 30 16:45:34 UTC 2021)
(GPL source distribution)
Java Runtime: Java(TM) SE Runtime Environment
JVM: Java HotSpot(TM) 64-Bit Server VM
Default Encoding: UTF-8
Language: en
Country: US
--></g></svg>