<?xml version="1.0" encoding="UTF-8" standalone="no"?><svg xmlns="http://www.w3.org/2000/svg" xmlns:xlink="http://www.w3.org/1999/xlink" contentScriptType="application/ecmascript" contentStyleType="text/css" height="549px" preserveAspectRatio="none" style="width:462px;height:549px;background:#FFFFFF;" version="1.1" viewBox="0 0 462 549" width="462px" zoomAndPan="magnify"><defs><filter height="300%" id="fca91xrq0m9wa" width="300%" x="-1" y="-1"><feGaussianBlur result="blurOut" stdDeviation="2.0"/><feColorMatrix in="blurOut" result="blurOut2" type="matrix" values="0 0 0 0 0 0 0 0 0 0 0 0 0 0 0 0 0 0 .4 0"/><feOffset dx="4.0" dy="4.0" in="blurOut2" result="blurOut3"/><feBlend in="SourceGraphic" in2="blurOut3" mode="normal"/></filter></defs><g><path d="M10,10 L10,35.1328 A0,0 0 0 0 10,35.1328 L205,35.1328 A0,0 0 0 0 205,35.1328 L205,28 L225,22.5664 L205,20 L205,20 L195,10 L10,10 A0,0 0 0 0 10,10 " fill="#FBFB77" filter="url(#fca91xrq0m9wa)" style="stroke:#A80036;stroke-width:1.0;"/><path d="M195,10 L195,20 L205,20 L195,10 " fill="#FBFB77" style="stroke:#A80036;stroke-width:1.0;"/><text fill="#000000" font-family="sans-serif" font-size="13" lengthAdjust="spacing" textLength="174" x="16" y="27.0669">commit auf repo-utils/main</text><ellipse cx="235" cy="22.5664" fill="#000000" filter="url(#fca91xrq0m9wa)" rx="10" ry="10" style="stroke:none;stroke-width:1.0;"/><rect fill="#FEFECE" filter="url(#fca91xrq0m9wa)" height="33.9688" rx="12.5" ry="12.5" style="stroke:#A80036;stroke-width:1.5;" width="124" x="173" y="55.1328"/><text fill="#000000" font-family="sans-serif" font-size="12" lengthAdjust="spacing" textLength="104" x="183" y="76.2715">repo-utils:update</text><line style="stroke:#A80036;stroke-width:1.5;" x1="88" x2="383.5" y1="109.1016" y2="109.1016"/><rect fill="#FFFFFF" filter="url(#fca91xrq0m9wa)" height="68.2969" style="stroke:#000000;stroke-width:2.0;" width="137" x="19.5" y="119.9033"/><path d="M146.5,119.9033 L146.5,129.2002 L136.5,139.2002 L19.5,139.2002 " fill="none" style="stroke:#000000;stroke-width:2.0;"/><text fill="#000000" font-family="sans-serif" font-size="14" font-weight="bold" lengthAdjust="spacing" textLength="57" x="22.5" y="133.8984">update</text><text fill="#000000" font-family="sans-serif" font-size="14" lengthAdjust="spacing" textLength="56" x="83.5" y="133.8984">toolbox</text><ellipse cx="88" cy="166.2002" fill="#FEFECE" filter="url(#fca91xrq0m9wa)" rx="10" ry="10" style="stroke:#A80036;stroke-width:1.5;"/><path d="M88.1094,162.3721 L86.5,166.7158 L89.7188,166.7158 L88.1094,162.3721 Z M87.4375,161.2002 L88.7813,161.2002 L92.1094,169.9502 L90.875,169.9502 L90.0781,167.7002 L86.1406,167.7002 L85.3438,169.9502 L84.0938,169.9502 L87.4375,161.2002 Z " fill="#000000"/><rect fill="#FFFFFF" filter="url(#fca91xrq0m9wa)" height="68.2969" style="stroke:#000000;stroke-width:2.0;" width="104" x="184.5" y="119.9033"/><path d="M278.5,119.9033 L278.5,129.2002 L268.5,139.2002 L184.5,139.2002 " fill="none" style="stroke:#000000;stroke-width:2.0;"/><text fill="#000000" font-family="sans-serif" font-size="14" font-weight="bold" lengthAdjust="spacing" textLength="57" x="187.5" y="133.8984">update</text><text fill="#000000" font-family="sans-serif" font-size="14" lengthAdjust="spacing" textLength="23" x="248.5" y="133.8984">util</text><ellipse cx="236.5" cy="166.2002" fill="#FEFECE" filter="url(#fca91xrq0m9wa)" rx="10" ry="10" style="stroke:#A80036;stroke-width:1.5;"/><path d="M235.3594,166.5283 L235.3594,169.7314 L237.2656,169.7314 Q238.2188,169.7314 238.6719,169.3408 Q239.1406,168.9346 239.1406,168.1221 Q239.1406,167.2939 238.6719,166.9189 Q238.2188,166.5283 237.2656,166.5283 L235.3594,166.5283 Z M235.3594,162.9189 L235.3594,165.5596 L237.1094,165.5596 Q237.9844,165.5596 238.4063,165.2314 Q238.8281,164.9033 238.8281,164.2471 Q238.8281,163.5752 238.4063,163.2471 Q237.9844,162.9189 237.1094,162.9189 L235.3594,162.9189 Z M234.1719,161.9502 L237.2031,161.9502 Q238.5625,161.9502 239.2813,162.5127 Q240.0156,163.0752 240.0156,164.1064 Q240.0156,164.9189 239.6406,165.4033 Q239.2656,165.8721 238.5469,165.9814 Q239.4219,166.1689 239.9063,166.7627 Q240.3906,167.3564 240.3906,168.2471 Q240.3906,169.4189 239.5938,170.0596 Q238.7969,170.7002 237.3125,170.7002 L234.1719,170.7002 L234.1719,161.9502 Z " fill="#000000"/><rect fill="#FFFFFF" filter="url(#fca91xrq0m9wa)" height="68.2969" style="stroke:#000000;stroke-width:2.0;" width="129" x="316.5" y="119.9033"/><path d="M440.5,119.9033 L440.5,129.2002 L430.5,139.2002 L316.5,139.2002 " fill="none" style="stroke:#000000;stroke-width:2.0;"/><text fill="#000000" font-family="sans-serif" font-size="14" font-weight="bold" lengthAdjust="spacing" textLength="57" x="319.5" y="133.8984">update</text><text fill="#000000" font-family="sans-serif" font-size="14" lengthAdjust="spacing" textLength="53" x="380.5" y="133.8984">analyse</text><ellipse cx="383.5" cy="166.2002" fill="#FEFECE" filter="url(#fca91xrq0m9wa)" rx="10" ry="10" style="stroke:#A80036;stroke-width:1.5;"/><path d="M386.2344,162.6221 L386.2344,163.8721 Q385.625,163.3096 384.9531,163.0439 Q384.2813,162.7627 383.5156,162.7627 Q382.0156,162.7627 381.2188,163.6846 Q380.4219,164.6064 380.4219,166.3408 Q380.4219,168.0596 381.2188,168.9814 Q382.0156,169.9033 383.5156,169.9033 Q384.2813,169.9033 384.9531,169.6221 Q385.625,169.3408 386.2344,168.7939 L386.2344,170.0283 Q385.6094,170.4502 384.9063,170.6689 Q384.2188,170.8721 383.4531,170.8721 Q381.4531,170.8721 380.3125,169.6533 Q379.1719,168.4346 379.1719,166.3408 Q379.1719,164.2314 380.3125,163.0127 Q381.4531,161.7939 383.4531,161.7939 Q384.2344,161.7939 384.9219,162.0127 Q385.625,162.2158 386.2344,162.6221 Z " fill="#000000"/><rect fill="#FFFFFF" filter="url(#fca91xrq0m9wa)" height="333.1406" style="stroke:#000000;stroke-width:2.0;" width="239" x="115.5" y="199.002"/><path d="M344.5,199.002 L344.5,208.2988 L334.5,218.2988 L115.5,218.2988 " fill="none" style="stroke:#000000;stroke-width:2.0;"/><text fill="#000000" font-family="sans-serif" font-size="14" font-weight="bold" lengthAdjust="spacing" textLength="57" x="118.5" y="212.9971">update</text><text fill="#000000" font-family="sans-serif" font-size="14" lengthAdjust="spacing" textLength="158" x="179.5" y="212.9971">toolbox / analyse / util</text><rect fill="#FEFECE" filter="url(#fca91xrq0m9wa)" height="33.9688" rx="12.5" ry="12.5" style="stroke:#A80036;stroke-width:1.5;" width="68" x="201" y="228.2988"/><text fill="#000000" font-family="sans-serif" font-size="12" lengthAdjust="spacing" textLength="48" x="211" y="249.4375">A / B / C</text><rect fill="#FEFECE" filter="url(#fca91xrq0m9wa)" height="33.9688" rx="12.5" ry="12.5" style="stroke:#A80036;stroke-width:1.5;" width="145" x="162.5" y="282.2676"/><text fill="#000000" font-family="sans-serif" font-size="12" lengthAdjust="spacing" textLength="125" x="172.5" y="303.4063">download workflows</text><rect fill="#FEFECE" filter="url(#fca91xrq0m9wa)" height="33.9688" rx="12.5" ry="12.5" style="stroke:#A80036;stroke-width:1.5;" width="140" x="165" y="336.2363"/><text fill="#000000" font-family="sans-serif" font-size="12" lengthAdjust="spacing" textLength="120" x="175" y="357.375">download .gitignore</text><rect fill="#FEFECE" filter="url(#fca91xrq0m9wa)" height="33.9688" rx="12.5" ry="12.5" style="stroke:#A80036;stroke-width:1.5;" width="172" x="149" y="390.2051"/><text fill="#000000" font-family="sans-serif" font-size="12" lengthAdjust="spacing" textLength="152" x="159" y="411.3438">download checkstyle.xml</text><rect fill="#FEFECE" filter="url(#fca91xrq0m9wa)" height="33.9688" rx="12.5" ry="12.5" style="stroke:#A80036;stroke-width:1.5;" width="149" x="160.5" y="444.1738"/><text fill="#000000" font-family="sans-serif" font-size="12" lengthAdjust="spacing" textLength="129" x="170.5" y="465.3125">commit changed files</text><ellipse cx="235" cy="509.1426" fill="#FFFFFF" filter="url(#fca91xrq0m9wa)" rx="11" ry="11" style="stroke:#000000;stroke-width:1.0;"/><ellipse cx="235" cy="509.1426" fill="#000000" rx="6" ry="6" style="stroke:#7F7F7F;stroke-width:1.0;"/><line style="stroke:#A80036;stroke-width:1.5;" x1="235" x2="235" y1="32.5664" y2="55.1328"/><polygon fill="#A80036" points="231,45.1328,235,55.1328,239,45.1328,235,49.1328" style="stroke:#A80036;stroke-width:1.0;"/><line style="stroke:#A80036;stroke-width:1.5;" x1="88" x2="88" y1="110.6016" y2="156.2002"/><polygon fill="#A80036" points="84,146.2002,88,156.2002,92,146.2002,88,150.2002" style="stroke:#A80036;stroke-width:1.0;"/><line style="stroke:#A80036;stroke-width:1.5;" x1="236.5" x2="236.5" y1="110.6016" y2="156.2002"/><polygon fill="#A80036" points="232.5,146.2002,236.5,156.2002,240.5,146.2002,236.5,150.2002" style="stroke:#A80036;stroke-width:1.0;"/><line style="stroke:#A80036;stroke-width:1.5;" x1="383.5" x2="383.5" y1="110.6016" y2="156.2002"/><polygon fill="#A80036" points="379.5,146.2002,383.5,156.2002,387.5,146.2002,383.5,150.2002" style="stroke:#A80036;stroke-width:1.0;"/><line style="stroke:#A80036;stroke-width:1.5;" x1="235" x2="235" y1="89.1016" y2="109.1016"/><polygon fill="#A80036" points="231,99.1016,235,109.1016,239,99.1016,235,103.1016" style="stroke:#A80036;stroke-width:1.0;"/><line style="stroke:#A80036;stroke-width:1.5;" x1="235" x2="235" y1="262.2676" y2="282.2676"/><polygon fill="#A80036" points="231,272.2676,235,282.2676,239,272.2676,235,276.2676" style="stroke:#A80036;stroke-width:1.0;"/><line style="stroke:#A80036;stroke-width:1.5;" x1="235" x2="235" y1="316.2363" y2="336.2363"/><polygon fill="#A80036" points="231,326.2363,235,336.2363,239,326.2363,235,330.2363" style="stroke:#A80036;stroke-width:1.0;"/><line style="stroke:#A80036;stroke-width:1.5;" x1="235" x2="235" y1="370.2051" y2="390.2051"/><polygon fill="#A80036" points="231,380.2051,235,390.2051,239,380.2051,235,384.2051" style="stroke:#A80036;stroke-width:1.0;"/><line style="stroke:#A80036;stroke-width:1.5;" x1="235" x2="235" y1="424.1738" y2="444.1738"/><polygon fill="#A80036" points="231,434.1738,235,444.1738,239,434.1738,235,438.1738" style="stroke:#A80036;stroke-width:1.0;"/><line style="stroke:#A80036;stroke-width:1.5;" x1="235" x2="235" y1="478.1426" y2="498.1426"/><polygon fill="#A80036" points="231,488.1426,235,498.1426,239,488.1426,235,492.1426" style="stroke:#A80036;stroke-width:1.0;"/><!--MD5=[6b250b7143dc4f8dfed932f6bbb7da25]
@startuml
start
note
    commit auf repo-utils/main
end note
:repo-utils:update;
split
    partition "**update** toolbox" {
        (A)
        detach
    }
split again
    partition "**update** util" {
        (B)
        detach
    }
split again
    partition "**update** analyse" {
        (C)
        detach
    }
end split

partition "**update** toolbox / analyse / util" {
    :A / B / C;
    :download workflows;
    :download .gitignore;
    :download checkstyle.xml;
    :commit changed files;
    stop
}
@enduml

PlantUML version 1.2021.15(Tue Nov 30 16:45:34 UTC 2021)
(GPL source distribution)
Java Runtime: Java(TM) SE Runtime Environment
JVM: Java HotSpot(TM) 64-Bit Server VM
Default Encoding: UTF-8
Language: en
Country: US
--></g></svg>