<?xml version="1.0" encoding="UTF-8" standalone="no"?><svg xmlns="http://www.w3.org/2000/svg" xmlns:xlink="http://www.w3.org/1999/xlink" contentScriptType="application/ecmascript" contentStyleType="text/css" height="559px" preserveAspectRatio="none" style="width:419px;height:559px;background:#FFFFFF;" version="1.1" viewBox="0 0 419 559" width="419px" zoomAndPan="magnify"><defs><filter height="300%" id="fin37myy0dbh9" width="300%" x="-1" y="-1"><feGaussianBlur result="blurOut" stdDeviation="2.0"/><feColorMatrix in="blurOut" result="blurOut2" type="matrix" values="0 0 0 0 0 0 0 0 0 0 0 0 0 0 0 0 0 0 .4 0"/><feOffset dx="4.0" dy="4.0" in="blurOut2" result="blurOut3"/><feBlend in="SourceGraphic" in2="blurOut3" mode="normal"/></filter></defs><g><path d="M10,10 L10,36.3516 A0,0 0 0 0 10,36.3516 L184,36.3516 A0,0 0 0 0 184,36.3516 L184,28 L204,23.1758 L184,20 L184,20 L174,10 L10,10 A0,0 0 0 0 10,10 " fill="#FBFB77" filter="url(#fin37myy0dbh9)" style="stroke:#A80036;stroke-width:1.0;"/><path d="M174,10 L174,20 L184,20 L174,10 " fill="#FBFB77" style="stroke:#A80036;stroke-width:1.0;"/><text fill="#000000" font-family="sans-serif" font-size="13" lengthAdjust="spacing" textLength="153" x="16" y="28.4951">commit auf repo-utils/main</text><ellipse cx="214" cy="23.1758" fill="#000000" filter="url(#fin37myy0dbh9)" rx="10" ry="10" style="stroke:none;stroke-width:1.0;"/><rect fill="#FEFECE" filter="url(#fin37myy0dbh9)" height="35.0938" rx="12.5" ry="12.5" style="stroke:#A80036;stroke-width:1.5;" width="113" x="157.5" y="56.3516"/><text fill="#000000" font-family="sans-serif" font-size="12" lengthAdjust="spacing" textLength="93" x="167.5" y="78.8086">repo-utils:update</text><line style="stroke:#A80036;stroke-width:1.5;" x1="79.5" x2="346.5" y1="111.4453" y2="111.4453"/><rect fill="#FFFFFF" filter="url(#fin37myy0dbh9)" height="69.6094" style="stroke:#000000;stroke-width:2.0;" width="118" x="20.5" y="122.0215"/><path d="M128.5,122.0215 L128.5,132.6309 L118.5,142.6309 L20.5,142.6309 " fill="none" style="stroke:#000000;stroke-width:2.0;"/><text fill="#000000" font-family="sans-serif" font-size="14" font-weight="bold" lengthAdjust="spacing" textLength="49" x="23.5" y="137.5547">update</text><text fill="#000000" font-family="sans-serif" font-size="14" lengthAdjust="spacing" textLength="45" x="76.5" y="137.5547">toolbox</text><ellipse cx="79.5" cy="169.6309" fill="#FEFECE" filter="url(#fin37myy0dbh9)" rx="10" ry="10" style="stroke:#A80036;stroke-width:1.5;"/><path d="M75.9844,173.6309 L79.2813,165.0371 L80.5,165.0371 L84.0156,173.6309 L82.7344,173.6309 L81.7188,171.0215 L78.1406,171.0215 L77.1875,173.6309 L75.9844,173.6309 Z M78.4688,170.0996 L81.375,170.0996 L80.4844,167.7246 Q80.0625,166.6465 79.875,165.9434 Q79.7031,166.7715 79.4063,167.584 L78.4688,170.0996 Z " fill="#000000"/><rect fill="#FFFFFF" filter="url(#fin37myy0dbh9)" height="69.6094" style="stroke:#000000;stroke-width:2.0;" width="91" x="166.5" y="122.0215"/><path d="M247.5,122.0215 L247.5,132.6309 L237.5,142.6309 L166.5,142.6309 " fill="none" style="stroke:#000000;stroke-width:2.0;"/><text fill="#000000" font-family="sans-serif" font-size="14" font-weight="bold" lengthAdjust="spacing" textLength="49" x="169.5" y="137.5547">update</text><text fill="#000000" font-family="sans-serif" font-size="14" lengthAdjust="spacing" textLength="18" x="222.5" y="137.5547">util</text><ellipse cx="212" cy="169.6309" fill="#FEFECE" filter="url(#fin37myy0dbh9)" rx="10" ry="10" style="stroke:#A80036;stroke-width:1.5;"/><path d="M209.375,174.1309 L209.375,165.5371 L212.6094,165.5371 Q213.5938,165.5371 214.1875,165.8027 Q214.7813,166.0684 215.1094,166.6152 Q215.4531,167.1465 215.4531,167.7402 Q215.4531,168.2871 215.1563,168.7715 Q214.8594,169.2559 214.25,169.5527 Q215.0313,169.7871 215.4375,170.3496 Q215.8594,170.8965 215.8594,171.6465 Q215.8594,172.2402 215.6094,172.7715 Q215.3594,173.2871 214.9844,173.5684 Q214.6094,173.8496 214.0313,173.9902 Q213.4688,174.1309 212.6563,174.1309 L209.375,174.1309 Z M210.5156,169.1465 L212.375,169.1465 Q213.125,169.1465 213.4531,169.0527 Q213.8906,168.9277 214.1094,168.6309 Q214.3281,168.3184 214.3281,167.8652 Q214.3281,167.4434 214.125,167.1152 Q213.9219,166.7871 213.5313,166.6777 Q213.1563,166.5527 212.2344,166.5527 L210.5156,166.5527 L210.5156,169.1465 Z M210.5156,173.1152 L212.6563,173.1152 Q213.2031,173.1152 213.4219,173.0684 Q213.8281,173.0059 214.0781,172.8496 Q214.3438,172.6777 214.5156,172.3652 Q214.6875,172.0527 214.6875,171.6465 Q214.6875,171.1621 214.4375,170.8027 Q214.2031,170.4434 213.7656,170.3027 Q213.3281,170.1621 212.5,170.1621 L210.5156,170.1621 L210.5156,173.1152 Z " fill="#000000"/><rect fill="#FFFFFF" filter="url(#fin37myy0dbh9)" height="69.6094" style="stroke:#000000;stroke-width:2.0;" width="117" x="285.5" y="122.0215"/><path d="M397.5,122.0215 L397.5,132.6309 L387.5,142.6309 L285.5,142.6309 " fill="none" style="stroke:#000000;stroke-width:2.0;"/><text fill="#000000" font-family="sans-serif" font-size="14" font-weight="bold" lengthAdjust="spacing" textLength="49" x="288.5" y="137.5547">update</text><text fill="#000000" font-family="sans-serif" font-size="14" lengthAdjust="spacing" textLength="49" x="341.5" y="137.5547">analyse</text><ellipse cx="346.5" cy="169.6309" fill="#FEFECE" filter="url(#fin37myy0dbh9)" rx="10" ry="10" style="stroke:#A80036;stroke-width:1.5;"/><path d="M349.0625,171.1152 L350.1875,171.4121 Q349.8281,172.8027 348.9063,173.5371 Q347.9844,174.2715 346.6406,174.2715 Q345.25,174.2715 344.375,173.709 Q343.5,173.1465 343.0469,172.084 Q342.5938,171.0059 342.5938,169.7715 Q342.5938,168.4277 343.1094,167.4277 Q343.625,166.4277 344.5625,165.9121 Q345.5156,165.3965 346.6563,165.3965 Q347.9375,165.3965 348.8125,166.0527 Q349.7031,166.709 350.0469,167.8965 L348.9219,168.1621 Q348.625,167.2246 348.0469,166.8027 Q347.4844,166.3652 346.625,166.3652 Q345.6406,166.3652 344.9688,166.8496 Q344.3125,167.3184 344.0313,168.1152 Q343.7656,168.9121 343.7656,169.7715 Q343.7656,170.8652 344.0781,171.6777 Q344.4063,172.4902 345.0781,172.8965 Q345.75,173.3027 346.5469,173.3027 Q347.5,173.3027 348.1563,172.7559 Q348.8281,172.209 349.0625,171.1152 Z " fill="#000000"/><rect fill="#FFFFFF" filter="url(#fin37myy0dbh9)" height="340.0781" style="stroke:#000000;stroke-width:2.0;" width="209" x="109.5" y="202.207"/><path d="M308.5,202.207 L308.5,212.8164 L298.5,222.8164 L109.5,222.8164 " fill="none" style="stroke:#000000;stroke-width:2.0;"/><text fill="#000000" font-family="sans-serif" font-size="14" font-weight="bold" lengthAdjust="spacing" textLength="49" x="112.5" y="217.7402">update</text><text fill="#000000" font-family="sans-serif" font-size="14" lengthAdjust="spacing" textLength="136" x="165.5" y="217.7402">toolbox / analyse / util</text><rect fill="#FEFECE" filter="url(#fin37myy0dbh9)" height="35.0938" rx="12.5" ry="12.5" style="stroke:#A80036;stroke-width:1.5;" width="62" x="183" y="232.8164"/><text fill="#000000" font-family="sans-serif" font-size="12" lengthAdjust="spacing" textLength="42" x="193" y="255.2734">A / B / C</text><rect fill="#FEFECE" filter="url(#fin37myy0dbh9)" height="35.0938" rx="12.5" ry="12.5" style="stroke:#A80036;stroke-width:1.5;" width="132" x="148" y="287.9102"/><text fill="#000000" font-family="sans-serif" font-size="12" lengthAdjust="spacing" textLength="112" x="158" y="310.3672">download workflows</text><rect fill="#FEFECE" filter="url(#fin37myy0dbh9)" height="35.0938" rx="12.5" ry="12.5" style="stroke:#A80036;stroke-width:1.5;" width="128" x="150" y="343.0039"/><text fill="#000000" font-family="sans-serif" font-size="12" lengthAdjust="spacing" textLength="108" x="160" y="365.4609">download .gitignore</text><rect fill="#FEFECE" filter="url(#fin37myy0dbh9)" height="35.0938" rx="12.5" ry="12.5" style="stroke:#A80036;stroke-width:1.5;" width="156" x="136" y="398.0977"/><text fill="#000000" font-family="sans-serif" font-size="12" lengthAdjust="spacing" textLength="136" x="146" y="420.5547">download checkstyle.xml</text><rect fill="#FEFECE" filter="url(#fin37myy0dbh9)" height="35.0938" rx="12.5" ry="12.5" style="stroke:#A80036;stroke-width:1.5;" width="138" x="145" y="453.1914"/><text fill="#000000" font-family="sans-serif" font-size="12" lengthAdjust="spacing" textLength="118" x="155" y="475.6484">commit changed files</text><ellipse cx="214" cy="519.2852" fill="#FFFFFF" filter="url(#fin37myy0dbh9)" rx="11" ry="11" style="stroke:#000000;stroke-width:1.0;"/><ellipse cx="214" cy="519.2852" fill="#000000" rx="6" ry="6" style="stroke:#7F7F7F;stroke-width:1.0;"/><line style="stroke:#A80036;stroke-width:1.5;" x1="214" x2="214" y1="33.1758" y2="56.3516"/><polygon fill="#A80036" points="210,46.3516,214,56.3516,218,46.3516,214,50.3516" style="stroke:#A80036;stroke-width:1.0;"/><line style="stroke:#A80036;stroke-width:1.5;" x1="79.5" x2="79.5" y1="112.9453" y2="159.6309"/><polygon fill="#A80036" points="75.5,149.6309,79.5,159.6309,83.5,149.6309,79.5,153.6309" style="stroke:#A80036;stroke-width:1.0;"/><line style="stroke:#A80036;stroke-width:1.5;" x1="212" x2="212" y1="112.9453" y2="159.6309"/><polygon fill="#A80036" points="208,149.6309,212,159.6309,216,149.6309,212,153.6309" style="stroke:#A80036;stroke-width:1.0;"/><line style="stroke:#A80036;stroke-width:1.5;" x1="346.5" x2="346.5" y1="112.9453" y2="159.6309"/><polygon fill="#A80036" points="342.5,149.6309,346.5,159.6309,350.5,149.6309,346.5,153.6309" style="stroke:#A80036;stroke-width:1.0;"/><line style="stroke:#A80036;stroke-width:1.5;" x1="214" x2="214" y1="91.4453" y2="111.4453"/><polygon fill="#A80036" points="210,101.4453,214,111.4453,218,101.4453,214,105.4453" style="stroke:#A80036;stroke-width:1.0;"/><line style="stroke:#A80036;stroke-width:1.5;" x1="214" x2="214" y1="267.9102" y2="287.9102"/><polygon fill="#A80036" points="210,277.9102,214,287.9102,218,277.9102,214,281.9102" style="stroke:#A80036;stroke-width:1.0;"/><line style="stroke:#A80036;stroke-width:1.5;" x1="214" x2="214" y1="323.0039" y2="343.0039"/><polygon fill="#A80036" points="210,333.0039,214,343.0039,218,333.0039,214,337.0039" style="stroke:#A80036;stroke-width:1.0;"/><line style="stroke:#A80036;stroke-width:1.5;" x1="214" x2="214" y1="378.0977" y2="398.0977"/><polygon fill="#A80036" points="210,388.0977,214,398.0977,218,388.0977,214,392.0977" style="stroke:#A80036;stroke-width:1.0;"/><line style="stroke:#A80036;stroke-width:1.5;" x1="214" x2="214" y1="433.1914" y2="453.1914"/><polygon fill="#A80036" points="210,443.1914,214,453.1914,218,443.1914,214,447.1914" style="stroke:#A80036;stroke-width:1.0;"/><line style="stroke:#A80036;stroke-width:1.5;" x1="214" x2="214" y1="488.2852" y2="508.2852"/><polygon fill="#A80036" points="210,498.2852,214,508.2852,218,498.2852,214,502.2852" style="stroke:#A80036;stroke-width:1.0;"/><!--MD5=[ff733bd2717e335feb2101be78dbdc96]
@startuml update

start
note
    commit auf repo-utils/main
end note
:repo-utils:update;
split
    partition "**update** toolbox" {
        (A)
        detach
    }
split again
    partition "**update** util" {
        (B)
        detach
    }
split again
    partition "**update** analyse" {
        (C)
        detach
    }
end split

partition "**update** toolbox / analyse / util" {
    :A / B / C;
    :download workflows;
    :download .gitignore;
    :download checkstyle.xml;
    :commit changed files;
    stop
}

@enduml

PlantUML version 1.2021.14(Fri Nov 12 17:46:50 CET 2021)
(GPL source distribution)
Java Runtime: Java(TM) SE Runtime Environment
JVM: Java HotSpot(TM) 64-Bit Server VM
Default Encoding: Cp1252
Language: en
Country: GB
--></g></svg>